<?xml version="1.0" encoding="utf-8"?>
<!-- Generator: Adobe Illustrator 28.0.0, SVG Export Plug-In . SVG Version: 6.00 Build 0)  -->
<svg version="1.1" id="Favicon" xmlns="http://www.w3.org/2000/svg" xmlns:xlink="http://www.w3.org/1999/xlink" x="0px" y="0px"
	 viewBox="0 0 23.6 21.9" style="enable-background:new 0 0 23.6 21.9;" xml:space="preserve">
<style type="text/css">
	.st0{fill:#F5F7FA;}
</style>
<path class="st0" d="M9.1,5.9C9,5.2,8.7,4.7,8.1,4.3S6.8,3.8,6,3.8c-0.6,0-1.1,0.1-1.6,0.3s-0.8,0.5-1,0.8C3.1,5.2,3,5.6,3,6
	C3,6.4,3.1,6.7,3.3,7C3.5,7.2,3.7,7.4,4,7.6S4.5,7.9,4.8,8c0.3,0.1,0.6,0.2,0.8,0.3L7,8.6C7.4,8.7,7.8,8.9,8.2,9
	c0.4,0.2,0.9,0.4,1.2,0.7c0.4,0.3,0.7,0.6,1,1.1s0.4,1,0.4,1.6c0,0.7-0.2,1.4-0.6,2c-0.4,0.6-0.9,1.1-1.7,1.4S7,16.3,5.9,16.3
	c-1,0-1.8-0.2-2.5-0.5s-1.3-0.8-1.7-1.3c-0.4-0.6-0.6-1.2-0.7-1.9h1.7c0,0.5,0.2,0.9,0.5,1.3c0.3,0.3,0.7,0.6,1.2,0.7
	c0.5,0.2,1,0.2,1.5,0.2c0.6,0,1.2-0.1,1.7-0.3s0.9-0.5,1.2-0.9s0.4-0.8,0.4-1.3c0-0.4-0.1-0.8-0.4-1.1c-0.2-0.3-0.6-0.5-1-0.7
	c-0.4-0.2-0.8-0.3-1.3-0.5L4.9,9.6C3.8,9.3,3,8.9,2.4,8.3S1.4,7,1.4,6.1c0-0.8,0.2-1.4,0.6-2s1-1,1.7-1.3s1.5-0.5,2.3-0.5
	s1.7,0.2,2.3,0.5S9.6,3.5,10,4.1c0.4,0.5,0.6,1.2,0.6,1.8L9.1,5.9L9.1,5.9z"/>
<path class="st0" d="M12.8,16.1l2.2-13.5h4.4c1,0,1.7,0.2,2.3,0.5c0.6,0.3,1,0.8,1.2,1.4c0.2,0.6,0.3,1.3,0.1,2.1
	c-0.1,0.8-0.4,1.5-0.8,2.1c-0.4,0.6-1,1.1-1.7,1.4s-1.5,0.5-2.5,0.5h-3.7l0.2-1.1h3.7c0.7,0,1.3-0.1,1.8-0.4s0.9-0.6,1.2-1
	c0.3-0.4,0.5-0.9,0.6-1.5S22,5.5,21.8,5c-0.2-0.4-0.5-0.8-0.9-1s-1-0.4-1.7-0.4h-3.1l-2.1,12.4L12.8,16.1L12.8,16.1z M19.8,9.9
	l2.3,6.1h-1.4l-2.3-6.1C18.4,9.9,19.8,9.9,19.8,9.9z"/>
</svg>
