<?xml version="1.0" encoding="UTF-8"?>
<svg id="Favicon" xmlns="http://www.w3.org/2000/svg" viewBox="0 0 23.65 21.85">
  <defs>
    <style>
      .cls-1 {
        fill: #28e496;
      }

      .cls-1, .cls-2 {
        stroke-width: 0px;
      }

      .cls-2 {
        fill: #0a0f2c;
      }
    </style>
  </defs>
  <path class="cls-2" d="m9.05,5.9c-.08-.67-.4-1.19-.97-1.56s-1.26-.56-2.08-.56c-.6,0-1.12.1-1.57.29s-.8.46-1.04.8c-.25.34-.37.73-.37,1.16,0,.36.09.67.26.93.17.26.4.47.67.64s.56.31.86.42c.3.11.58.19.83.26l1.38.37c.35.09.75.22,1.18.38.43.16.85.38,1.25.67.4.28.73.64.99,1.07s.39.97.39,1.61c0,.73-.19,1.39-.57,1.98-.38.59-.94,1.06-1.67,1.41s-1.61.52-2.66.52c-.97,0-1.81-.16-2.52-.47-.71-.31-1.26-.75-1.67-1.31-.4-.56-.63-1.21-.68-1.95h1.69c.04.51.22.93.52,1.27.3.33.69.58,1.15.74.47.16.97.24,1.5.24.63,0,1.19-.1,1.69-.31s.89-.49,1.18-.86.44-.8.44-1.29c0-.45-.12-.82-.38-1.1-.25-.28-.58-.51-.99-.69-.41-.18-.85-.33-1.33-.46l-1.67-.48c-1.06-.3-1.9-.74-2.51-1.3s-.93-1.3-.93-2.22c0-.76.21-1.42.62-1.99s.97-1.01,1.67-1.32c.7-.31,1.48-.47,2.34-.47s1.65.16,2.33.47c.68.31,1.22.74,1.62,1.27.4.54.61,1.15.63,1.83h-1.59Z"/>
  <path class="cls-1" d="m12.83,16.06l2.25-13.54h4.37c.96,0,1.74.17,2.32.52.59.34,1,.82,1.22,1.43.23.61.28,1.31.15,2.11-.13.79-.41,1.48-.84,2.08-.43.6-1,1.08-1.7,1.42s-1.53.51-2.48.51h-3.72l.2-1.13h3.69c.71,0,1.31-.12,1.82-.35s.91-.57,1.22-1c.3-.43.5-.94.6-1.53.1-.59.07-1.11-.1-1.55-.16-.44-.46-.78-.89-1.03s-1-.36-1.72-.36h-3.1l-2.06,12.43h-1.24Zm6.98-6.11l2.32,6.11h-1.42l-2.28-6.11h1.38Z"/>
</svg>