<?xml version="1.0" encoding="utf-8"?>
<!-- Generator: Adobe Illustrator 28.0.0, SVG Export Plug-In . SVG Version: 6.00 Build 0)  -->
<svg version="1.1" id="Negativo" xmlns="http://www.w3.org/2000/svg" xmlns:xlink="http://www.w3.org/1999/xlink" x="0px" y="0px"
	 viewBox="0 0 95.5 21.9" style="enable-background:new 0 0 95.5 21.9;" xml:space="preserve">
<style type="text/css">
	.st0{fill:#F6F6F6;}
</style>
<g>
	<path class="st0" d="M9.1,6C9,5.4,8.7,4.8,8.1,4.5C7.5,4.1,6.8,3.9,6,3.9C5.4,3.9,4.9,4,4.4,4.2S3.6,4.7,3.4,5S3,5.8,3,6.2
		c0,0.4,0.1,0.7,0.3,0.9S3.7,7.6,4,7.8s0.6,0.3,0.9,0.4c0.3,0.1,0.6,0.2,0.8,0.3L7,8.8C7.4,8.9,7.8,9,8.2,9.2
		c0.4,0.2,0.9,0.4,1.2,0.7s0.7,0.6,1,1.1s0.4,1,0.4,1.6c0,0.7-0.2,1.4-0.6,2s-0.9,1.1-1.7,1.4S7,16.4,5.9,16.4c-1,0-1.8-0.2-2.5-0.5
		s-1.3-0.8-1.7-1.3s-0.6-1.2-0.7-1.9h1.7c0,0.5,0.2,0.9,0.5,1.3s0.7,0.6,1.2,0.7c0.5,0.2,1,0.2,1.5,0.2c0.6,0,1.2-0.1,1.7-0.3
		s0.9-0.5,1.2-0.9s0.4-0.8,0.4-1.3c0-0.4-0.1-0.8-0.4-1.1c-0.2-0.3-0.6-0.5-1-0.7c-0.4-0.2-0.8-0.3-1.3-0.5L4.9,9.8
		C3.8,9.5,3,9,2.4,8.5S1.4,7.2,1.4,6.2c0-0.8,0.2-1.4,0.6-2s1-1,1.7-1.3c0.7-0.3,1.5-0.5,2.3-0.5s1.7,0.2,2.3,0.5S9.6,3.7,10,4.2
		c0.4,0.5,0.6,1.2,0.6,1.8L9.1,6L9.1,6z"/>
	<path class="st0" d="M13.3,16.2V6h1.5v1.6H15c0.2-0.5,0.6-1,1-1.3c0.5-0.3,1-0.4,1.7-0.4s1.2,0.2,1.7,0.4s0.8,0.7,1,1.3h0.1
		c0.3-0.5,0.6-0.9,1.2-1.2s1.1-0.5,1.9-0.5c0.9,0,1.6,0.3,2.2,0.8s0.9,1.4,0.9,2.6v6.8h-1.6V9.4c0-0.8-0.2-1.3-0.6-1.6
		c-0.4-0.3-0.9-0.5-1.5-0.5c-0.7,0-1.3,0.2-1.7,0.6s-0.6,1-0.6,1.6v6.6h-1.6v-7c0-0.6-0.2-1-0.6-1.4c-0.4-0.3-0.9-0.5-1.5-0.5
		c-0.4,0-0.8,0.1-1.1,0.3s-0.6,0.5-0.9,0.9c-0.2,0.4-0.3,0.8-0.3,1.3v6.4L13.3,16.2L13.3,16.2z"/>
	<path class="st0" d="M32.5,16.4c-0.6,0-1.2-0.1-1.8-0.4s-0.9-0.6-1.2-1.1c-0.3-0.5-0.5-1-0.5-1.7c0-0.6,0.1-1.1,0.3-1.4
		c0.2-0.4,0.5-0.6,0.9-0.9s0.8-0.4,1.3-0.5c0.5-0.1,0.9-0.2,1.4-0.2c0.6-0.1,1.1-0.1,1.5-0.2s0.7-0.1,0.8-0.2s0.3-0.3,0.3-0.5V9.3
		c0-0.6-0.2-1.2-0.5-1.5s-0.9-0.5-1.6-0.5s-1.3,0.2-1.8,0.5c-0.4,0.3-0.7,0.7-0.9,1l-1.5-0.5c0.3-0.6,0.6-1.1,1.1-1.4
		c0.4-0.3,0.9-0.6,1.5-0.7c0.5-0.1,1-0.2,1.6-0.2c0.3,0,0.7,0,1.1,0.1s0.8,0.2,1.2,0.5s0.7,0.6,1,1.1s0.4,1.1,0.4,1.9v6.7h-1.6v-1.4
		h-0.1c-0.1,0.2-0.3,0.5-0.5,0.7s-0.6,0.5-1,0.6C33.6,16.3,33.1,16.4,32.5,16.4L32.5,16.4z M32.7,15c0.6,0,1.1-0.1,1.6-0.4
		c0.4-0.2,0.8-0.6,1-0.9c0.2-0.4,0.3-0.8,0.3-1.2v-1.4c-0.1,0.1-0.2,0.1-0.4,0.2s-0.5,0.1-0.8,0.2s-0.6,0.1-0.8,0.1
		s-0.5,0.1-0.7,0.1c-0.4,0.1-0.8,0.1-1.1,0.2c-0.4,0.1-0.6,0.3-0.9,0.5s-0.3,0.6-0.3,0.9c0,0.5,0.2,0.9,0.6,1.2
		C31.6,14.9,32.1,15,32.7,15L32.7,15z"/>
	<path class="st0" d="M40,16.2V6h1.5v1.5h0.1c0.2-0.5,0.5-0.9,1-1.2c0.5-0.3,1-0.5,1.6-0.5c0.1,0,0.3,0,0.4,0c0.2,0,0.3,0,0.4,0v1.6
		c0,0-0.2,0-0.4-0.1c-0.2,0-0.4,0-0.6,0c-0.5,0-0.9,0.1-1.3,0.3s-0.7,0.5-0.9,0.9s-0.3,0.8-0.3,1.2v6.4L40,16.2L40,16.2z"/>
	<path class="st0" d="M51.3,6v1.3h-5.3V6H51.3z M47.6,3.6h1.6v9.7c0,0.4,0.1,0.8,0.2,1s0.3,0.4,0.5,0.4c0.2,0.1,0.4,0.1,0.7,0.1
		c0.2,0,0.3,0,0.4,0c0.1,0,0.2,0,0.3-0.1l0.3,1.4c-0.1,0-0.2,0.1-0.4,0.1s-0.4,0.1-0.7,0.1c-0.4,0-0.9-0.1-1.3-0.3s-0.8-0.5-1-0.9
		s-0.4-0.9-0.4-1.5L47.6,3.6L47.6,3.6z"/>
	<path class="st0" d="M53.2,16.2l2.2-13.5h4.4c1,0,1.7,0.2,2.3,0.5c0.6,0.3,1,0.8,1.2,1.4c0.2,0.6,0.3,1.3,0.2,2.1
		c-0.1,0.8-0.4,1.5-0.8,2.1c-0.4,0.6-1,1.1-1.7,1.4s-1.5,0.5-2.5,0.5h-3.7L55,9.6h3.7c0.7,0,1.3-0.1,1.8-0.4c0.5-0.2,0.9-0.6,1.2-1
		c0.3-0.4,0.5-0.9,0.6-1.5c0.1-0.6,0.1-1.1-0.1-1.6s-0.5-0.8-0.9-1s-1-0.4-1.7-0.4h-3.1l-2.1,12.4L53.2,16.2L53.2,16.2z M60.2,10.1
		l2.3,6.1h-1.4l-2.3-6.1C58.8,10.1,60.2,10.1,60.2,10.1z"/>
	<path class="st0" d="M67.5,16.4c-0.6,0-1.2-0.1-1.6-0.4s-0.8-0.6-1-1c-0.2-0.5-0.3-1-0.2-1.7c0.1-0.5,0.3-0.9,0.5-1.3
		c0.2-0.3,0.6-0.6,0.9-0.9s0.8-0.4,1.3-0.5s1-0.2,1.6-0.3c0.6-0.1,1.1-0.1,1.5-0.2c0.4-0.1,0.7-0.1,0.9-0.2s0.4-0.3,0.4-0.6l0-0.2
		c0.1-0.7,0-1.2-0.3-1.6C71.3,7.2,70.8,7,70,7c-0.7,0-1.4,0.2-1.9,0.5c-0.5,0.3-0.9,0.7-1.2,1.1l-1-0.4c0.3-0.6,0.7-1,1.2-1.3
		s1-0.6,1.5-0.7C69,6,69.5,5.9,70.1,5.9c0.4,0,0.8,0.1,1.2,0.2s0.8,0.3,1.1,0.5c0.3,0.2,0.6,0.6,0.7,1c0.2,0.4,0.2,1,0.1,1.7
		l-1.1,6.9h-1.2l0.3-1.6H71c-0.2,0.3-0.4,0.6-0.8,0.9c-0.3,0.3-0.7,0.5-1.2,0.7S68.1,16.4,67.5,16.4L67.5,16.4z M67.8,15.4
		c0.6,0,1.2-0.1,1.7-0.4c0.5-0.3,0.9-0.6,1.3-1.1s0.5-1,0.6-1.5l0.2-1.5c-0.1,0.1-0.3,0.2-0.5,0.2c-0.2,0.1-0.5,0.1-0.7,0.2
		c-0.3,0.1-0.5,0.1-0.8,0.1s-0.5,0.1-0.7,0.1c-0.6,0.1-1.1,0.2-1.5,0.3s-0.8,0.4-1,0.6s-0.4,0.6-0.5,1c-0.1,0.6,0,1.1,0.4,1.4
		C66.7,15.2,67.2,15.3,67.8,15.4L67.8,15.4z"/>
	<path class="st0" d="M77.3,9.9l-1.1,6.4h-1.2L76.8,6h1.1l-0.3,1.6h0.1c0.3-0.5,0.8-0.9,1.3-1.2s1.2-0.5,2-0.5
		c0.7,0,1.2,0.1,1.7,0.4c0.5,0.3,0.8,0.7,1,1.2s0.2,1.2,0.1,2l-1.1,6.6h-1.2l1.1-6.5c0.1-0.8,0-1.5-0.4-2c-0.4-0.5-1-0.7-1.7-0.7
		c-0.5,0-1,0.1-1.5,0.3c-0.5,0.2-0.8,0.6-1.2,1C77.6,8.8,77.4,9.3,77.3,9.9L77.3,9.9z"/>
	<path class="st0" d="M85.9,16.2l2.2-13.5h1.2l-2.2,13.5H85.9z M87.6,12.4l0.2-1.6h0.3L93.6,6h1.5l-5.5,4.7l-0.1,0L87.6,12.4
		L87.6,12.4z M92.2,16.2L89,11l1-0.8l3.8,6C93.7,16.2,92.2,16.2,92.2,16.2z"/>
</g>
</svg>
