<svg width="53" height="54" viewBox="0 0 53 54" fill="none" xmlns="http://www.w3.org/2000/svg">
<path d="M20.4823 50.0387L3.46145 33.0179C2.17952 31.7359 2.17952 29.6577 3.46145 28.3757L27.5513 4.28555C28.4091 3.42774 29.5838 2.96322 30.7965 3.00228L45.7692 3.48518C48.0823 3.55986 49.94 5.41756 50.0146 7.73059L50.4975 22.7034C50.5366 23.9161 50.0721 25.0908 49.2143 25.9486L25.1242 50.0387C23.8425 51.3207 21.764 51.3207 20.4823 50.0387Z" stroke="#F5F7FA" stroke-width="5" stroke-miterlimit="10" stroke-linecap="round" stroke-linejoin="round"/>
<path d="M7.37866 24.4585L29.0403 46.1221" stroke="#F5F7FA" stroke-width="5" stroke-miterlimit="10" stroke-linecap="round" stroke-linejoin="round"/>
<path d="M42.5258 13.7187C44.0412 13.7187 45.2697 12.4902 45.2697 10.9748C45.2697 9.45942 44.0412 8.23096 42.5258 8.23096C41.0104 8.23096 39.782 9.45942 39.782 10.9748C39.782 12.4902 41.0104 13.7187 42.5258 13.7187Z" fill="#F5F7FA"/>
</svg>
