<?xml version="1.0" encoding="utf-8"?>
<!-- Generator: Adobe Illustrator 28.0.0, SVG Export Plug-In . SVG Version: 6.00 Build 0)  -->
<svg version="1.1" id="Livello_1" xmlns="http://www.w3.org/2000/svg" xmlns:xlink="http://www.w3.org/1999/xlink" x="0px" y="0px"
	 viewBox="0 0 16 16" style="enable-background:new 0 0 16 16;" xml:space="preserve">
<style type="text/css">
	.st0{fill:#FF8622;stroke:#FF8622;stroke-width:0.8333;stroke-linejoin:round;stroke-miterlimit:2.6667;}
</style>
<path class="st0" d="M8,12.2c-0.2,0-0.5,0.1-0.7,0.2l-3,1.6c-0.2,0.1-0.4,0-0.5-0.1c0-0.1,0-0.1,0-0.2l0.6-3.4c0-0.6-0.1-1-0.5-1.3
	L1.4,6.5C1.3,6.4,1.3,6.2,1.4,6c0.1,0,0.2-0.1,0.2-0.1L5,5.4C5.5,5.3,5.9,5,6.1,4.6l1.5-3.1C7.7,1.4,7.9,1.3,8,1.3"/>
</svg>
