<?xml version="1.0" encoding="utf-8"?>
<!-- Generator: Adobe Illustrator 28.0.0, SVG Export Plug-In . SVG Version: 6.00 Build 0)  -->
<svg version="1.1" id="Livello_1" xmlns="http://www.w3.org/2000/svg" xmlns:xlink="http://www.w3.org/1999/xlink" x="0px" y="0px"
	 viewBox="0 0 16 16" style="enable-background:new 0 0 16 16;" xml:space="preserve">
<style type="text/css">
	.st0{fill:#34C759;stroke:#34C759;stroke-width:0.8333;stroke-linejoin:round;stroke-miterlimit:2.6667;}
</style>
<path class="st0" d="M8,12.2c-0.2,0-0.5,0.1-0.7,0.2L4.3,14c-0.2,0.1-0.4,0-0.5-0.1c0-0.1,0-0.1,0-0.2l0.6-3.4
	C4.4,9.7,4.3,9.3,3.9,9L1.4,6.5C1.3,6.4,1.3,6.2,1.4,6C1.5,6,1.6,5.9,1.6,5.9l3.4-0.5c0.5-0.1,0.9-0.4,1.1-0.8l1.5-3.1
	C7.7,1.4,7.9,1.3,8,1.3"/>
</svg>
