<?xml version="1.0" encoding="utf-8"?>
<!-- Generator: Adobe Illustrator 28.0.0, SVG Export Plug-In . SVG Version: 6.00 Build 0)  -->
<svg version="1.1" id="Livello_1" xmlns="http://www.w3.org/2000/svg" xmlns:xlink="http://www.w3.org/1999/xlink" x="0px" y="0px"
	 viewBox="0 0 16 16" style="enable-background:new 0 0 16 16;" xml:space="preserve">
<style type="text/css">
	.st0{fill:#FF8622;stroke:#FF8622;stroke-width:0.8333;stroke-linecap:round;stroke-linejoin:round;stroke-miterlimit:2.6667;}
</style>
<path class="st0" d="M7.7,1.5C7.8,1.4,8,1.3,8.2,1.4c0.1,0,0.1,0.1,0.2,0.2l1.9,3.8l0,0L14.5,6c0.2,0,0.3,0.2,0.3,0.4
	c0,0.1,0,0.1-0.1,0.2l-3,2.9l0,0l0.7,4.2c0,0.2-0.1,0.4-0.3,0.4c-0.1,0-0.2,0-0.2,0L8,12l-3.7,2c-0.2,0.1-0.4,0-0.5-0.1
	c0-0.1,0-0.1,0-0.2l0.7-4.2l0,0l-3-2.9C1.3,6.4,1.3,6.2,1.4,6c0.1,0,0.2-0.1,0.2-0.1l4.2-0.6l0,0L7.7,1.5z"/>
</svg>
