<svg width="33" height="32" viewBox="0 0 33 32" fill="none" xmlns="http://www.w3.org/2000/svg">
<path d="M30.6117 27.5063C31.6139 26.1629 32.3016 24.6115 32.6241 22.9668C32.9467 21.3221 32.8958 19.6259 32.4752 18.0035C32.0547 16.3811 31.2752 14.8738 30.1943 13.5929C29.1134 12.3119 27.7587 11.2901 26.2302 10.6028C25.8972 8.68709 25.132 6.87251 23.9927 5.29691C22.8534 3.7213 21.37 2.42613 19.6552 1.50979C17.9403 0.593453 16.0392 0.0800654 14.0962 0.00863639C12.1532 -0.0627927 10.2195 0.309616 8.44204 1.09757C6.66455 1.88551 5.09004 3.06827 3.83814 4.55597C2.58624 6.04367 1.68989 7.79717 1.2172 9.68322C0.74451 11.5693 0.707914 13.5383 1.11019 15.4406C1.51247 17.3429 2.34304 19.1285 3.5388 20.6617L1.31604 22.8686C1.09415 23.0935 0.943837 23.3791 0.884072 23.6893C0.824306 23.9995 0.857764 24.3205 0.980223 24.6117C1.10019 24.9038 1.30391 25.1538 1.56572 25.3302C1.82752 25.5066 2.1357 25.6016 2.4514 25.6032H11.5503C12.4565 27.5136 13.8851 29.1283 15.6708 30.2604C17.4566 31.3925 19.5264 31.9956 21.6407 32H31.2354C31.5511 31.9984 31.8592 31.9034 32.1211 31.727C32.3829 31.5505 32.5866 31.3005 32.7065 31.0085C32.829 30.7173 32.8625 30.3963 32.8027 30.0861C32.7429 29.7758 32.5926 29.4903 32.3707 29.2654L30.6117 27.5063ZM10.4469 20.8056C10.4491 21.3412 10.4919 21.8758 10.5749 22.4048H6.30526L6.86494 21.8611C7.01483 21.7124 7.13379 21.5356 7.21498 21.3407C7.29616 21.1458 7.33796 20.9368 7.33796 20.7257C7.33796 20.5146 7.29616 20.3055 7.21498 20.1107C7.13379 19.9158 7.01483 19.7389 6.86494 19.5902C5.96874 18.7038 5.25824 17.6476 4.77499 16.4834C4.29175 15.3191 4.04545 14.0702 4.05051 12.8097C4.05051 10.2649 5.06138 7.82429 6.86072 6.02484C8.66007 4.2254 11.1005 3.21448 13.6452 3.21448C15.6308 3.20255 17.5702 3.8132 19.1908 4.96059C20.8114 6.10798 22.0317 7.73441 22.6801 9.61126C22.3283 9.61126 21.9925 9.61126 21.6407 9.61126C18.6719 9.61126 15.8248 10.7907 13.7255 12.89C11.6263 14.9894 10.4469 17.8367 10.4469 20.8056ZM27.3016 28.8016L27.3815 28.8816H21.6407C19.7911 28.8783 17.9998 28.2338 16.572 27.0578C15.1443 25.8819 14.1684 24.2473 13.8105 22.4326C13.4527 20.6178 13.735 18.7351 14.6096 17.1051C15.4841 15.4752 16.8966 14.1989 18.6065 13.4936C20.3164 12.7884 22.2179 12.6978 23.9871 13.2373C25.7563 13.7769 27.2838 14.9131 28.3092 16.4525C29.3347 17.992 29.7947 19.8393 29.611 21.6799C29.4273 23.5205 28.6111 25.2404 27.3016 26.5467C27.0003 26.842 26.8278 27.2444 26.8218 27.6662C26.8227 27.8778 26.8656 28.0871 26.9479 28.282C27.0303 28.4769 27.1505 28.6535 27.3016 28.8016Z" fill="#F5F7FA"/>
</svg>
