<svg width="49" height="48" viewBox="0 0 49 48" fill="none" xmlns="http://www.w3.org/2000/svg">
<path d="M46.1686 27.4961C45.3934 26.4719 44.9761 25.24 44.9761 23.9758C44.9761 22.7116 45.3934 21.4797 46.1686 20.4554L47.7686 18.3434C47.9625 18.0879 48.0904 17.7921 48.1419 17.4803C48.1934 17.1684 48.167 16.8494 48.0649 16.5492C47.9628 16.2489 47.7879 15.9761 47.5544 15.7528C47.3209 15.5295 47.0355 15.3622 46.7215 15.2645L44.1476 14.4637C42.8868 14.0735 41.7878 13.3112 41.0085 12.2865C40.2292 11.2617 39.8098 10.0272 39.8105 8.76032V6.15785C39.8106 5.84223 39.7326 5.53107 39.5829 5.24975C39.4333 4.96843 39.2161 4.72493 38.9492 4.53911C38.6824 4.35329 38.3733 4.23042 38.0473 4.18053C37.7213 4.13064 37.3875 4.15514 37.0733 4.25203L34.466 5.0528C33.2069 5.44065 31.8519 5.43871 30.594 5.04726C29.3362 4.6558 28.2396 3.89481 27.4608 2.87272L25.8587 0.774729C25.6551 0.532887 25.3975 0.337748 25.1046 0.203673C24.8118 0.0695985 24.4912 0 24.1665 0C23.8418 0 23.5213 0.0695985 23.2284 0.203673C22.9356 0.337748 22.6779 0.532887 22.4744 0.774729L20.8723 2.87673C20.0934 3.89881 18.9969 4.65981 17.739 5.05126C16.4812 5.44271 15.1261 5.44465 13.8671 5.0568L11.2597 4.25604C10.9458 4.15925 10.6125 4.13469 10.2868 4.18438C9.96109 4.23406 9.65227 4.35657 9.38549 4.54193C9.1187 4.7273 8.90149 4.97028 8.75153 5.25108C8.60158 5.53188 8.52312 5.84257 8.52256 6.15785V8.76032C8.52325 10.0272 8.10383 11.2617 7.32456 12.2865C6.54528 13.3112 5.44627 14.0735 4.18539 14.4637L1.61158 15.2645C1.29754 15.3622 1.01213 15.5295 0.77865 15.7528C0.545169 15.9761 0.370235 16.2489 0.268131 16.5492C0.166027 16.8494 0.139648 17.1684 0.191147 17.4803C0.242646 17.7921 0.370564 18.0879 0.564456 18.3434L2.16445 20.4534C2.93965 21.4777 3.35697 22.7096 3.35697 23.9738C3.35697 25.238 2.93965 26.4699 2.16445 27.4941L0.564456 29.6061C0.370564 29.8617 0.242646 30.1575 0.191147 30.4693C0.139648 30.7811 0.166027 31.1002 0.268131 31.4004C0.370235 31.7006 0.545169 31.9735 0.77865 32.1968C1.01213 32.42 1.29754 32.5873 1.61158 32.6851L4.18539 33.4858C5.44627 33.8761 6.54528 34.6384 7.32456 35.6631C8.10383 36.6879 8.52325 37.9224 8.52256 39.1892V41.7917C8.52258 42.1076 8.60081 42.419 8.75086 42.7005C8.90091 42.982 9.11851 43.2255 9.38587 43.4112C9.65324 43.5969 9.96278 43.7194 10.2892 43.7688C10.6156 43.8183 10.9496 43.7931 11.2639 43.6955L13.8524 42.8948C15.114 42.4994 16.4743 42.4978 17.737 42.89C18.9996 43.2823 20.099 44.0481 20.8765 45.0768L22.4723 47.1748C22.6665 47.4304 22.9213 47.6384 23.2158 47.7818C23.5102 47.9252 23.836 48 24.1665 48C24.497 48 24.8228 47.9252 25.1173 47.7818C25.4117 47.6384 25.6665 47.4304 25.8608 47.1748L27.4566 45.0768C28.2344 44.0486 29.3339 43.2831 30.5964 42.8909C31.8588 42.4987 33.219 42.5001 34.4806 42.8948L37.0691 43.6955C37.3834 43.7931 37.7174 43.8183 38.0438 43.7688C38.3703 43.7194 38.6798 43.5969 38.9472 43.4112C39.2145 43.2255 39.4321 42.982 39.5822 42.7005C39.7322 42.419 39.8105 42.1076 39.8105 41.7917V39.1892C39.808 37.921 40.2266 36.6847 41.006 35.6583C41.7854 34.632 42.8854 33.8685 44.1476 33.4778L46.7215 32.6771C47.0355 32.5793 47.3209 32.412 47.5544 32.1888C47.7879 31.9655 47.9628 31.6926 48.0649 31.3924C48.167 31.0922 48.1934 30.7731 48.1419 30.4613C48.0904 30.1494 47.9625 29.8537 47.7686 29.5981L46.1686 27.4961ZM42.6922 29.7303C40.6535 30.3952 38.8798 31.6465 37.6141 33.3126C36.3484 34.9787 35.6526 36.9782 35.622 39.0371C33.5622 38.4273 31.3554 38.4416 29.3044 39.0782C27.2534 39.7147 25.4587 40.9423 24.1665 42.5925C23.1948 41.35 21.9334 40.3413 20.4825 39.6463C19.0316 38.9513 17.4313 38.5891 15.8084 38.5887C14.7585 38.5894 13.7145 38.7399 12.711 39.0351C12.6802 36.9763 11.9842 34.9769 10.7186 33.3109C9.45289 31.6448 7.67937 30.3935 5.64089 29.7282C6.88268 28.0438 7.54924 26.0335 7.54924 23.9728C7.54924 21.9121 6.88268 19.9018 5.64089 18.2173C7.68004 17.5519 9.45402 16.2999 10.7198 14.6331C11.9855 12.9662 12.681 10.966 12.711 8.90646C14.7703 9.51634 16.9764 9.50263 19.0272 8.86721C21.078 8.2318 22.8731 7.00576 24.1665 5.35708C25.4589 7.00705 27.2536 8.23445 29.3045 8.87098C31.3555 9.50751 33.5621 9.522 35.622 8.91246C35.6516 10.9723 36.3469 12.973 37.6127 14.6403C38.8784 16.3075 40.6527 17.5598 42.6922 18.2253C41.4518 19.9092 40.786 21.9183 40.786 23.9778C40.786 26.0372 41.4518 28.0464 42.6922 29.7303Z" fill="#F5F7FA"/>
<path d="M31.0628 18.5556L22.0722 27.1498L17.2702 22.5594C17.077 22.3682 16.8459 22.2157 16.5904 22.1108C16.3349 22.0059 16.0601 21.9506 15.782 21.9483C15.5039 21.946 15.2282 21.9967 14.9708 22.0973C14.7134 22.198 14.4796 22.3466 14.2829 22.5346C14.0863 22.7226 13.9308 22.9461 13.8255 23.1921C13.7202 23.4381 13.6672 23.7017 13.6696 23.9676C13.6721 24.2334 13.7298 24.4961 13.8396 24.7403C13.9493 24.9845 14.1089 25.2054 14.3089 25.3901L20.5916 31.3958C20.9843 31.7711 21.5169 31.9819 22.0722 31.9819C22.6276 31.9819 23.1601 31.7711 23.5529 31.3958L34.0241 21.3863C34.4055 21.0087 34.6166 20.5031 34.6119 19.9782C34.6071 19.4533 34.3868 18.9512 33.9985 18.58C33.6103 18.2088 33.085 17.9983 32.5359 17.9937C31.9868 17.9892 31.4578 18.1909 31.0628 18.5556Z" fill="#F5F7FA"/>
</svg>
